<svg id="Warstwa_1" data-name="Warstwa 1" xmlns="http://www.w3.org/2000/svg" width="385" height="150" viewBox="0 0 385.3 150.7"><defs><style>.cls-1{fill:#020203;}.cls-2{fill:none;stroke:#020203;stroke-miterlimit:10;}</style></defs><path class="cls-1" d="M155.1,87.3c.9,2.5,4,4.3,6.8,4.3,5.3,0,7.8-3.2,7.4-9.5-1.2,2.4-4.6,3.9-8,3.9a13.08,13.08,0,0,1-9.4-3.9,13.56,13.56,0,0,1-4-10,13.41,13.41,0,0,1,4-10.1,13.19,13.19,0,0,1,9.4-4c3.4,0,6.7,1.5,8,3.9V58.6H177v23c0,11.3-5.4,17.1-15.1,17.1a14.33,14.33,0,0,1-13.2-8.3Zm7.5-21.7a6.4,6.4,0,1,0,0,12.8,6.44,6.44,0,0,0,4.5-1.8,6.26,6.26,0,0,0,1.9-4.7A6.12,6.12,0,0,0,162.6,65.6Z"/><path class="cls-1" d="M196.6,85.9a14.08,14.08,0,0,1-9.9-3.8,13.41,13.41,0,0,1-4-10.1,13.19,13.19,0,0,1,4-10,13.65,13.65,0,0,1,9.9-3.8,14.08,14.08,0,0,1,9.9,3.8,13.26,13.26,0,0,1,4.1,10,13.49,13.49,0,0,1-4.1,10.1A14.08,14.08,0,0,1,196.6,85.9Zm6.1-14a6,6,0,0,0-6.1-6.1,5.92,5.92,0,0,0-6,6.1,6.05,6.05,0,1,0,12.1,0Z"/><path class="cls-1" d="M224.2,85.4h-8V58.6h8v6.5c1.3-4.6,4.5-7,7.6-7a9.47,9.47,0,0,1,4.6,1L235,66.3a10,10,0,0,0-4.1-.8c-4.4,0-6.6,3.6-6.6,10.7v9.2Z"/><path class="cls-1" d="M248.4,85.4h-8V58.6h8v6.5c1.3-4.6,4.5-7,7.6-7a9.47,9.47,0,0,1,4.6,1l-1.4,7.2a10,10,0,0,0-4.1-.8c-4.4,0-6.6,3.6-6.6,10.7v9.2Z"/><path class="cls-1" d="M273.5,48.7a4.8,4.8,0,0,1-4.9,4.7,4.89,4.89,0,0,1-5-4.7,5,5,0,0,1,9.9,0Zm-.9,9.9V85.4h-7.9V58.6Z"/><path class="cls-1" d="M292.2,85.9a14.08,14.08,0,0,1-9.9-3.8,13.41,13.41,0,0,1-4-10.1,13.19,13.19,0,0,1,4-10,13.65,13.65,0,0,1,9.9-3.8,14.08,14.08,0,0,1,9.9,3.8,13.26,13.26,0,0,1,4.1,10,13.49,13.49,0,0,1-4.1,10.1A14.08,14.08,0,0,1,292.2,85.9Zm6.1-14a6,6,0,0,0-6.1-6.1,5.92,5.92,0,0,0-6,6.1,6.05,6.05,0,1,0,12.1,0Z"/><path class="cls-1" d="M319.8,85.4h-8V58.6h8v3.9a8.91,8.91,0,0,1,7.7-4.5c6.2,0,9.8,3.8,9.8,11.3v16h-8V71c0-3.4-1.8-5.3-4.6-5.3-3.3,0-4.9,1.8-4.9,5.4Z"/><circle class="cls-2" cx="80.9" cy="65.4" r="4.3"/><circle class="cls-1" cx="80.9" cy="65.4" r="4.3"/><path class="cls-1" d="M118.8,71.9a37.45,37.45,0,1,1,0-1.7l-15-8.9a25,25,0,1,0-.6,21.4h-4A10.76,10.76,0,0,1,88.4,71.9h30.4Z"/></svg>
